<svg id="visual" viewBox="0 0 960 540" width="960" height="540" xmlns="http://www.w3.org/2000/svg" xmlns:xlink="http://www.w3.org/1999/xlink" version="1.1"><rect x="0" y="0" width="960" height="540" fill="#001220"></rect><defs><linearGradient id="grad1_0" x1="43.8%" y1="0%" x2="100%" y2="100%"><stop offset="14.444444444444446%" stop-color="#001220" stop-opacity="1"></stop><stop offset="85.55555555555554%" stop-color="#001220" stop-opacity="1"></stop></linearGradient></defs><defs><linearGradient id="grad2_0" x1="0%" y1="0%" x2="56.3%" y2="100%"><stop offset="14.444444444444446%" stop-color="#001220" stop-opacity="1"></stop><stop offset="85.55555555555554%" stop-color="#001220" stop-opacity="1"></stop></linearGradient></defs><g transform="translate(960, 0)"><path d="M0 486C-48.9 443.9 -97.9 401.8 -159.2 384.3C-220.5 366.9 -294.2 374.1 -343.7 343.7C-393.1 313.2 -418.2 245 -437.9 181.4C-457.6 117.8 -471.8 58.9 -486 0L0 0Z" fill="#3c84fa"></path></g><g transform="translate(0, 540)"><path d="M0 -486C50.6 -449.9 101.3 -413.8 164.2 -396.3C227.1 -378.8 302.2 -379.9 343.7 -343.7C385.1 -307.4 393 -233.8 411.1 -170.3C429.2 -106.8 457.6 -53.4 486 0L0 0Z" fill="#3c84fa"></path></g></svg>