<svg id="visual" viewBox="0 0 1520 734" width="1520" height="734" xmlns="http://www.w3.org/2000/svg" xmlns:xlink="http://www.w3.org/1999/xlink" version="1.1"><path d="M0 243L23 254C46 265 92 287 138 284.7C184 282.3 230 255.7 276.2 250.8C322.3 246 368.7 263 414.8 276.3C461 289.7 507 299.3 553 284.7C599 270 645 231 691 207.8C737 184.7 783 177.3 829 168.7C875 160 921 150 967 147.5C1013 145 1059 150 1105.2 162.3C1151.3 174.7 1197.7 194.3 1243.8 205.3C1290 216.3 1336 218.7 1382 241.8C1428 265 1474 309 1497 331L1520 353L1520 0L1497 0C1474 0 1428 0 1382 0C1336 0 1290 0 1243.8 0C1197.7 0 1151.3 0 1105.2 0C1059 0 1013 0 967 0C921 0 875 0 829 0C783 0 737 0 691 0C645 0 599 0 553 0C507 0 461 0 414.8 0C368.7 0 322.3 0 276.2 0C230 0 184 0 138 0C92 0 46 0 23 0L0 0Z" fill="#75ffa6"></path><path d="M0 383L23 394C46 405 92 427 138 424.5C184 422 230 395 276.2 385.2C322.3 375.3 368.7 382.7 414.8 393.7C461 404.7 507 419.3 553 402.2C599 385 645 336 691 318.8C737 301.7 783 316.3 829 305.3C875 294.3 921 257.7 967 241.8C1013 226 1059 231 1105.2 242C1151.3 253 1197.7 270 1243.8 285.8C1290 301.7 1336 316.3 1382 348.2C1428 380 1474 429 1497 453.5L1520 478L1520 351L1497 329C1474 307 1428 263 1382 239.8C1336 216.7 1290 214.3 1243.8 203.3C1197.7 192.3 1151.3 172.7 1105.2 160.3C1059 148 1013 143 967 145.5C921 148 875 158 829 166.7C783 175.3 737 182.7 691 205.8C645 229 599 268 553 282.7C507 297.3 461 287.7 414.8 274.3C368.7 261 322.3 244 276.2 248.8C230 253.7 184 280.3 138 282.7C92 285 46 263 23 252L0 241Z" fill="#50ff8d"></path><path d="M0 456L23 467C46 478 92 500 138 501.2C184 502.3 230 482.7 276.2 476.5C322.3 470.3 368.7 477.7 414.8 482.7C461 487.7 507 490.3 553 475.7C599 461 645 429 691 418C737 407 783 417 829 403.7C875 390.3 921 353.7 967 329.2C1013 304.7 1059 292.3 1105.2 302C1151.3 311.7 1197.7 343.3 1243.8 367.8C1290 392.3 1336 409.7 1382 439.2C1428 468.7 1474 510.3 1497 531.2L1520 552L1520 476L1497 451.5C1474 427 1428 378 1382 346.2C1336 314.3 1290 299.7 1243.8 283.8C1197.7 268 1151.3 251 1105.2 240C1059 229 1013 224 967 239.8C921 255.7 875 292.3 829 303.3C783 314.3 737 299.7 691 316.8C645 334 599 383 553 400.2C507 417.3 461 402.7 414.8 391.7C368.7 380.7 322.3 373.3 276.2 383.2C230 393 184 420 138 422.5C92 425 46 403 23 392L0 381Z" fill="#00ff71"></path><path d="M0 596L23 600.8C46 605.7 92 615.3 138 620.2C184 625 230 625 276.2 625C322.3 625 368.7 625 414.8 623.8C461 622.7 507 620.3 553 630.2C599 640 645 662 691 673C737 684 783 684 829 673C875 662 921 640 967 622.8C1013 605.7 1059 593.3 1105.2 598.2C1151.3 603 1197.7 625 1243.8 627.5C1290 630 1336 613 1382 617.8C1428 622.7 1474 649.3 1497 662.7L1520 676L1520 550L1497 529.2C1474 508.3 1428 466.7 1382 437.2C1336 407.7 1290 390.3 1243.8 365.8C1197.7 341.3 1151.3 309.7 1105.2 300C1059 290.3 1013 302.7 967 327.2C921 351.7 875 388.3 829 401.7C783 415 737 405 691 416C645 427 599 459 553 473.7C507 488.3 461 485.7 414.8 480.7C368.7 475.7 322.3 468.3 276.2 474.5C230 480.7 184 500.3 138 499.2C92 498 46 476 23 465L0 454Z" fill="#00dd62"></path><path d="M0 735L23 735C46 735 92 735 138 735C184 735 230 735 276.2 735C322.3 735 368.7 735 414.8 735C461 735 507 735 553 735C599 735 645 735 691 735C737 735 783 735 829 735C875 735 921 735 967 735C1013 735 1059 735 1105.2 735C1151.3 735 1197.7 735 1243.8 735C1290 735 1336 735 1382 735C1428 735 1474 735 1497 735L1520 735L1520 674L1497 660.7C1474 647.3 1428 620.7 1382 615.8C1336 611 1290 628 1243.8 625.5C1197.7 623 1151.3 601 1105.2 596.2C1059 591.3 1013 603.7 967 620.8C921 638 875 660 829 671C783 682 737 682 691 671C645 660 599 638 553 628.2C507 618.3 461 620.7 414.8 621.8C368.7 623 322.3 623 276.2 623C230 623 184 623 138 618.2C92 613.3 46 603.7 23 598.8L0 594Z" fill="#00bb54"></path></svg>